<?xml version="1.0" encoding="UTF-8"?>
<svg id="Layer_1" xmlns="http://www.w3.org/2000/svg" version="1.1" viewBox="0 0 1363.64 2000">
  <!-- Generator: Adobe Illustrator 30.6.0, SVG Export Plug-In . SVG Version: 2.1.4 Build 109)  -->
  <defs>
    <style>
      .st0 {
        stroke: #231f20;
        stroke-miterlimit: 10;
        stroke-width: 8px;
      }

      .st0, .st1 {
        fill: none;
      }

      .st2 {
        fill: #f1f2f2;
      }

      .st3 {
        fill: #231f20;
      }

      .st4 {
        fill: #262626;
      }

      .st5 {
        fill: #fdfadb;
      }
    </style>
  </defs>
  <g>
    <path class="st2" d="M534.13,215.18c24.94-41.31,63.86-87.98,120.75-112.55,27.44-11.85-36.74,55.7-36.74,55.7,0,0,54.26-57.69,142.22-36.74,17.21,4.1-116.15,54.52-116.15,54.52,0,0-75.07,28.38-142.73,53.96-21.77,39.66-123.93,225.74-123.93,225.74-16.59,30.22-43.85,33.19-36.74,24.89s16.59-22.52,34.37-65.19c-15.41,19.56-96,62.81-47.41,26.07s175.98-209.75,195.6-207.38c3.25-6.14,6.83-12.52,10.77-19.03Z"/>
    <path class="st2" d="M603.91,498.48s-21.6,18.72-53.33,54.34c-37.41,41.98-88.9,107.44-135.7,193.36-38.47,70.62-180.75,43.26-180.75,34.37,0-10.07,141.38-254.27,135.73-313.36"/>
    <path class="st2" d="M277.84,693.96c20.75-13.21,52.88,86.59,4.11,98.31"/>
    <path class="st2" d="M721.15,145.08s88.5-1.84,166.64-33.89c11.16-4.58,20.12-21.6,32.56-15.67,11.27,5.37,0,62.9-42.47,117.75,18.18,6.7,101.14,82.55,105.28,202.25.91,26.4-3.69-35.9-78.22-91.26,27.26,35.18,92.44,112,78.22,227.56-1.49,12.13-41.23-88.89-71.18-104.3l-190.84-302.44Z"/>
    <path class="st2" d="M911.99,852.3c12.46-14.85,243.48-89.28,308.21,45.59,7.11,14.81,23.11-42.67,21.33-94.81,16,42.07,18.37,94.22-5.93,136.3s91.85-72.3,38.8-290.37c24.02,43.76,42.39,126.22,17.41,182.52,66.46-106.07,59.95-364.32-341.83-535.7"/>
    <path class="st2" d="M560.45,177.3c-4.94-52.15-48.39-80-44.24-76.06s13.04,19.17,17.78,55.91c-5.33-32.59-166.73-119.76-157.63-103.11,10.04,18.37,20.39,24.47,29.63,30.81-66.37-33.19-241.78,82.96-216.89,92.44,34.36,13.09,86.85,7.03,133.7-3.41,66.55,49.41,77.27,60.3,119.86,114.79-26.14-26.1-69.62-37.4-55.64-27.23,41.85,30.43,55.64,54.46,55.64,54.46"/>
    <path class="st2" d="M661.74,907.25c-172.29,248.38-457.12,307.21-547.47,554.04-29.93,81.76,40.88-75.92,143.81-150.38-46.72,25.55-293.45,413.9,36.5,585.44,36.5,18.98-90.52-43.8-86.14-148.19,49.64,94.9,153.42,222.55,405.87,127.02,67.51-25.55,47.52-35.5,6.57-68.84"/>
    <path class="st2" d="M1187.34,856.87c21.84,17.91,110.23,321.92-13.87,409.52-41.1,29.01-111.69-73.73-102.2-112.42,7.91-32.25,38.69-163.76,0-205.98"/>
    <path class="st2" d="M1110.86,1244.22s39.98-43.53,24.65-119.45"/>
    <path class="st2" d="M1202.73,1236.82s27.07-63.88,0-112.06"/>
    <path class="st2" d="M1089.43,1000c-34.21,7.97-59.03,21.11-108.67,193.39-12.13,42.11-18.98-112.42-18.98-112.42-17.52,56.21-36.5,190.51-62.78,223.37-24.26,30.35,29.31-80.29-21.9-172.28,13.14,80.3,13.88,126.81,0,182.49-9.84,39.47-29.2-130.07-29.2-130.07,0,0,9.55,99.95,5.84,136.2s-34.94-131.43-64.24-206.14c10.95,86.14,16.79,106.58,33.58,144.54s-151.84-147.7-110.96-311.09"/>
    <path class="st2" d="M336.91,1654.73s58.32,192.95,324.83-204.39c20.07-29.93-19.26,63.58-88.32,201.47,47.45-73.73,142.35-350.39,475.95-369.37,29.17-1.66-137.38,54.75-166.44,99.28,20.67-24.93,273.95-164.04,440.47-37.96,32.09,24.29-177.68-17.84-309.07,245.27,75.09-114.61,200.81-175.99,164.98-151.84-89.88,60.59-68.45,220.45-302.21,375.21,75.92-23.36,99.04-45.29,135.78-73,41.61-31.39-115.31,203.66-443.11,150.82"/>
    <path class="st2" d="M384.55,1394.86s-18.55,206.45,85.22,151.84c27.74-14.6-33.18,48.97-85.22,43.51,15.14,24.38,41.97,50.04,110.04,0,21.98-16.16-5.54,57.96-48.03,68.91,26.86-1.46,34.71-4.68,72.76-28.62"/>
    <path class="st2" d="M718.02,1431.42c65.76-186.82-135.84-259.93-135.84-259.93l1.92,404.01,164.61-83.26-30.69-60.83Z"/>
    <path class="st2" d="M725.37,1314.94c19.6,10.98,25.83,71.16,27.8,57.29,4.56-31.96,0-89.83,0-89.83,0,0,31.95,126.32,30.49,74.49s13.02-120.08,13.02-120.08l-34.79-99.87-36.52,177.99"/>
    <path class="st2" d="M1024.55,1282.41c64.87-38.19,27.3-128.13,9.67-274.63l171.9-26.82-51.79-555.84-433.18-280.04-239.56,89.1s-42.78,112.31-111.73,233.01c48.39,13.59,141.21,90.65,190.59,74.73,97.98-31.59,94.26,26.76,121.87,45.45,15.1,10.22-22.3-80.39-12.95-86.56,15.73,21.2,73.82,60.79,81.83,100.59,18.53,92.12-89.45,305.85-89.45,305.85l-57.83,306.58,121.46,101.12-38.35,250.47,280.59-133.99v-205.91l-16.57,71.14"/>
    <g>
      <path class="st1" d="M685.1,522.02c-57.07,68.6-79.64,137.17-52.62,183.97,46.58,80.68,222.89,66.1,393.81-32.58,170.91-98.68,271.7-244.07,225.12-324.76-33.36-57.79-133.28-66.69-250.1-30.84"/>
      <circle class="st5" cx="971.86" cy="701.96" r="42.62"/>
      <circle class="st5" cx="1001.3" cy="317.8" r="42.62"/>
      <circle class="st5" cx="1187.79" cy="303.86" r="42.62"/>
      <circle class="st5" cx="1130.95" cy="600.27" r="42.62"/>
      <circle class="st5" cx="791.34" cy="756.14" r="42.62"/>
      <circle class="st5" cx="1248.75" cy="454.06" r="42.62"/>
      <circle class="st5" cx="685.1" cy="522.02" r="42.62"/>
      <circle class="st5" cx="626.74" cy="693.81" r="42.62"/>
    </g>
  </g>
  <g>
    <path class="st4" d="M281.4,687.07s-46.09,81.86-46.09,90.56,52.86,14.98,57.4,13.47,35.84-44.19-11.31-104.03Z"/>
    <path class="st3" d="M523.36,234.21c-3.87.4-6.94,3.81-9.74,6.26-2.83,2.75-5.54,5.64-8.16,8.61-5.24,5.96-10.25,12.13-15.21,18.33-9.48,12.81-20.48,24.29-30.75,36.48-31.21,36.26-61.56,73.45-94.13,108.63-11.16,11.8-22.19,23.55-35.23,33.55-4.47,3.48-9.09,6.84-12.92,10.86-.2.21-.39.53-.24.27l.09-.18c1.06-2.42-.73-5.59-3.33-6.03-.19-.02-.31-.06-.49-.06-.43-.02-.45.03-.4,0,.03,0,.16-.03.29-.07,7.44-2.65,14.49-7,21.37-10.97,10.02-6.04,19.89-12.5,28.9-19.89,2.91-2.42,5.78-5.02,7.83-7.58,0,0,22.27-27.86,22.27-27.86-7.65,18.01-18.32,44.84-26.69,62.21-3.44,7.3-7.18,14.53-11.24,21.56-3.01,5.69-7.35,10.99-11.93,15.45,0-.07.07-.23.06-.74.02-.49-.31-1.39-.77-1.8-.43-.43-.75-.49-.81-.5-.08,0-.05.05.08.08,4.27.45,8.97-1.81,12.86-3.77,9.09-4.93,16.62-12.64,22.48-21.24-5.28,12.16-14.37,24-26.8,30.26-4.43,2.29-13.28,4.88-15.08-2.14-.56-3.23,1.59-5.5,3.19-7.8,13.07-19.49,22.7-40.88,31.7-62.53,0,0,8.54,5.02,8.54,5.02-5.71,6.84-12.18,11.49-19.07,16.57-6.63,4.74-13.43,9.12-20.38,13.29-5.25,3.13-10.58,6.15-16.1,8.85-2.75,1.29-5.74,2.8-8.93,3.45-.94.2-2.84.25-4.01-.35-2.79-1.13-4.01-4.75-2.72-7.36,1.1-2.33,2.67-3.64,4.24-5.18,3.82-3.52,7.94-6.69,11.97-9.77,12.31-9.43,23.24-21.07,33.96-32.41,10.8-11.6,21.32-23.53,31.75-35.55,20.85-24.06,41.3-48.53,62.1-72.78,10.53-12,20.44-24.61,32.56-35.29,5.86-5.53,11.82-10.95,18.07-16.04,4.71-3.81,9.53-7.62,14.96-10.39,1.81-.87,3.82-1.76,5.86-1.44h0Z"/>
    <path class="st3" d="M603.91,498.48c-24.98,25.45-47.78,52.75-69.45,80.82-39.85,47.47-75.23,98.82-105.82,152.72-4.03,6.89-9.23,16.96-13.64,23.48-27.55,38.56-82.24,44.49-126.06,42.29-12.21-.64-51.36-4.59-58.56-13.56-.7-.81-1.33-2.61-1.24-3.8.04-.78.19-1.62.43-2.34,2.58-7.24,6.25-13.69,9.57-20.48,41.14-78.77,82.14-157.7,117.08-239.38,3.34-8.2,6.42-16.51,8.99-24.98,2.51-8.47,4.85-17.13,4.65-26.05,1.15,8.91-.29,17.96-1.91,26.73-5.46,26.36-14.9,51.71-24.52,76.75-21.67,49.05-46.07,96.61-70.77,144.11-11.13,22.05-23.63,43.56-33.5,66.12,0,0-.07.22-.07.22.03-.06.06-.23.06-.34,0-.06,0-.13-.01-.19,0,0,0-.55-.07-.79-.21-.85-.44-1.35-.87-1.77-.03-.02.03.03.13.09,3.59,2.06,8.29,3.2,12.46,4.28,37.75,8.13,79.05,8.9,115.77-3.7,17.74-6.37,34.3-17.5,43.52-34.17,50.98-91.36,111.85-179.83,193.84-246.05h0Z"/>
    <path class="st3" d="M277.84,693.96c1.74-2.57,5.48-3.57,8.55-2.9,3.34.6,6.18,2.24,8.7,4.02,3.81,4.64,6.52,9.52,8.75,14.56,4.39,10.04,7.07,20.61,8.22,31.47,1.1,11.04.63,22.34-3.36,32.96-2.05,5.39-5.25,10.63-9.74,14.75-2.73,1.52-5.61,2.6-8.51,3.14-2.78.56-5.71.65-8.5.31,1.11-.81,2.21-1.57,3.23-2.46,2.81-2.25,5.36-5.31,7-8.34,10.25-9.8,11.2-25.83,9.93-39.34-1.65-13.75-5.35-27.92-13.59-39.14-1.32-1.08-1.62-2.92-2.53-4.28-1.63-3.05-4.37-5.58-8.14-4.75h0Z"/>
    <path class="st3" d="M497.24,295.81c5.48-23.99,14.4-47.31,24.96-69.56,2.87-6.51,6.93-12.35,10.57-18.42,13.2-21.02,28.39-40.92,45.98-58.48,21.37-21.55,46.6-39.33,74.49-51.46,2.33-.97,5.12-1.94,7.8-1.57,3.42.5,5.81,3.42,5.64,6.87-.13,3.49-2.24,6.94-3.87,9.66-11.89,17.82-26.65,33.25-41.06,48.93,0,0-7.27-6.87-7.27-6.87,2.26-2.32,4.55-4.36,7-6.42,39.16-32.62,91.49-43.91,140.79-31.55,3.57,1,5.79,5.07,3.97,8.63-1.19,2.42-2.93,3.56-4.81,5-2.78,1.95-5.45,3.44-8.16,4.91-10.66,5.65-21.65,10.49-32.63,15.38-25.19,9.29-50.72,17.58-76.43,25.25,24.26-11.42,48.44-22.78,72.39-34.61,13.19-5.75,26.97-11.32,39.04-19.08.68-.48,1.24-.92,1.72-1.41-.6.81-.66,2.8.11,3.94.67.96,1.05,1.23,1.72,1.51-.3-.06-1.26-.27-1.61-.34-25.23-5.8-51.93-5.56-76.77,1.9-21.84,6.53-42.61,17.87-59.04,33.75,0,0-7.27-6.87-7.27-6.87,9.48-10.09,18.84-20.45,27.64-31.08,5.05-6.35,10.76-12.9,14.26-20.11.15-.35.23-.63.3-.89-.03.26,0,.59.1.86.12.5.31.79.62,1.25.58.73,1.5,1.3,2.38,1.32-.23.04-.44.07-.79.18-50.1,20.61-89.42,61.32-117.76,106.7-16.2,26.61-32.39,53.27-44.01,82.69h0Z"/>
    <path class="st3" d="M442.66,315.9c-9.31-10.73-20.39-19.09-31.17-27.85-1.76-1.88-4.79-4.5-6.75-6.23-5.76-4.92-11.91-9.88-18.01-14.36-2.2-1.74-4.82-3.22-6.4-5.65-2.75-4.4.54-9.19,5.48-9.07,3.94.05,7.2,1.14,10.78,2.25,18.53,6.48,35.42,16.35,49.61,30.15,0,0-7.47,6.62-7.47,6.62-21.11-27.23-42.75-54.11-69.63-75.81-5.33-4.35-10.61-8.79-16.2-12.86-1.35-1.07-2.55-2.35-3.81-3.55-5.41-5.27-13.42-12.92-18.82-18.22-2.49-2.47-5-4.91-7.47-7.42,3.11,1.64,6.16,3.36,9.25,5.04,7.21,4.1,15.72,8.95,22.72,13.25,4.63,2.53,8.39,6.27,12.59,9.42,8.21,6.63,16.29,13.36,24.01,20.6,20.69,19.09,37.96,41.4,55.24,63.39,0,0-7.47,6.62-7.47,6.62-12.6-12.34-28.92-21.92-45.67-27.72-2.3-.74-5.33-1.65-7.43-1.76,2.1-.37,3.61-2.72,3.25-4.85-.06-.56-.32-1.18-.59-1.54.5.53,1.47,1.19,2.09,1.67,5.66,4.19,11.47,8.62,16.85,13.18,3.41,2.81,7.48,6.49,10.83,9.33,5.62,5.65,10.3,12.26,14.84,18.78,3.53,5.31,6.89,10.76,9.36,16.61h0Z"/>
    <path class="st3" d="M426.13,142.93c-33.22,14.58-67.7,26.56-102.79,35.92-15.2,3.74-30.7,6.06-46.22,8.23-24.81,2.99-50.28,4.4-74.98-.79-3.64-.87-8.21-1.97-11.74-3.29,0,0-1.94-.65-1.94-.65-7.2-1.99-8.33-8.91-4.79-14.7,5.13-8.38,12.93-14.52,20.3-20.59,8.29-6.56,16.92-12.51,25.73-18.16,41.86-26.4,112.23-61.83,162.46-53.7,5.46.98,10.91,2.62,16.06,5.18l-5.07,8.59c-4.01-2.74-8.37-5.6-12.43-9.03-7.66-6.35-13.74-14.41-18.51-23.08-.89-1.47-1.49-3.33-1.1-5.13.35-1.98,1.98-3.76,3.83-4.36.82-.3,1.7-.41,2.56-.42,5.25.23,9.7,2.4,14.36,4.16,9.43,3.95,18.37,8.44,27.26,13.08,26.56,14.07,52.24,29.48,76.76,46.99,12.26,8.98,24.55,18.26,34.68,29.91,3.7,4.58,7.12,8.9,8.36,15.25,0,0-9.89,1.45-9.89,1.45-.83-6.13-1.79-12.23-3.02-18.25-1.2-6.03-2.93-11.89-4.75-17.63-2.05-6.26-4.02-13.02-8.31-17.98-.12-.14-.24-.26-.49-.64-.02-.02-.23-.37-.31-.55,0-.01-.34-.61-.41-1.7-.74,0,1.61-4.48,2.56-4.03,1.18-.46,2.06-.32,2.08-.32.72.09.76.15,1,.21.82.28,1.67.87,2.18,1.23,23.84,19.06,39.6,48.73,40.9,79.16-.91-6.24-2.41-12.35-4.45-18.25-7.53-21.62-22.86-42.09-41.49-54.26.08.03.07.03.23.09.19.05.18.09.86.18.01,0,.85.14,2-.32.94.46,3.26-3.99,2.53-3.97-.07-1.06-.39-1.62-.39-1.63-.07-.16-.27-.48-.27-.48-.2-.3-.26-.35-.31-.41,3.1,2.87,5.87,7.49,7.77,11.3,3.02,5.91,5.19,12.11,6.71,18.52,2.29,9.29,4.09,19.01,5.3,28.45,0,0-9.89,1.45-9.89,1.45-.23-1.39-1.05-3.25-2.16-5.03-3.7-5.82-8.76-10.72-13.97-15.47-7.18-6.44-14.95-12.42-22.9-18.16-23.96-17.12-49.49-32.45-75.56-46.25-8.71-4.55-17.54-8.98-26.43-12.69-3.31-1.35-7.24-2.94-10.4-3.41,2.27-.24,3.97-3.08,3.15-5.21,3.95,7.26,9.62,15.04,16.37,20.55,3.52,2.99,7.48,5.59,11.66,8.45,0,0-5.07,8.59-5.07,8.59-17.47-8.34-38.78-5.64-57.48-1.58-19.67,4.53-38.84,11.8-57.4,20.26-27.68,12.85-54.59,28.16-78.68,46.9-6.48,5.34-13.31,10.67-17.8,17.66-.22.4-.42.79-.53,1.09-.11.29-.18.55-.16.52,0,0,.03-.36-.21-.83-.23-.47-.6-.73-.64-.74-.04,0-.02,0,0,0,.02,0-.02,0,.18.07,3.07.96,6.51,2.3,9.65,2.95.95.21,3.67.93,4.49,1.11.31.06,2.34.41,2.75.48,9.64,1.87,20.09,2.45,29.94,2.52,27.99.03,55.87-4.81,83.32-10.61,35.49-6.43,70.5-15.47,104.95-26.2h0Z"/>
    <path class="st3" d="M721.15,145.08c26.78-3.11,53.21-7.91,79.16-14.15,28.65-5.34,56.85-12.89,83.82-23.7,6.64-2.21,11.33-8.06,17.24-12.42,4.91-3.92,11.91-6.95,18.37-4.86,14.61,3.53,9.1,28.12,6.78,38.39-14.25,53.17-47.85,100.05-90.41,134.41-65.48,52.43-151.66,68.77-232.2,47.27,26.84,2.44,53.74,2.77,80.07-.4,26.4-1.63,52.56-6.85,77.3-16.01,62.12-22.71,113.48-71.37,141.97-130.82,8.05-17.46,15.58-36.36,16.2-55.54.02-2.27-.29-5.47-1.24-7.12-.2-.29-.18-.19-.02-.13-1.26-.58-2.68-.93-4.08-.66-5.13,1.01-9.79,6.15-14.23,9.74-2.92,2.45-6.59,5.35-10.81,6.94-53.23,21.64-110.67,31.52-167.93,29.03h0Z"/>
    <g>
      <path class="st1" d="M685.1,522.02c-57.07,68.6-79.64,137.17-52.62,183.97,46.58,80.68,222.89,66.1,393.81-32.58,170.91-98.68,271.7-244.07,225.12-324.76-33.36-57.79-133.28-66.69-250.1-30.84"/>
      <circle class="st0" cx="971.86" cy="701.96" r="42.62"/>
      <circle class="st0" cx="1001.3" cy="317.8" r="42.62"/>
      <circle class="st0" cx="1187.79" cy="303.86" r="42.62"/>
      <circle class="st0" cx="1130.95" cy="600.27" r="42.62"/>
      <circle class="st0" cx="791.34" cy="756.14" r="42.62"/>
      <circle class="st0" cx="1248.75" cy="454.06" r="42.62"/>
      <circle class="st0" cx="685.1" cy="522.02" r="42.62"/>
      <circle class="st0" cx="626.74" cy="693.81" r="42.62"/>
    </g>
    <path class="st2" d="M1193.28,460.44c9.87,1.86,18.66,7.64,25.75,14.75,7.09,7.11,12.68,15.55,18.21,23.93,3.83,5.8,7.83,12.75,5.51,19.3-2.25,6.35-9.91,9.42-16.6,8.65s-12.65-4.47-18.35-8.07c-4.92-3.11-9.92-6.28-13.78-10.64-5.24-5.91-8-13.56-10.64-21-.52-1.48-1.06-3.03-.78-4.58.21-1.17.87-2.2,1.51-3.2,3.66-5.67,7.33-11.35,10.99-17.02"/>
    <path class="st2" d="M637.08,537.08c16.93,13.6,31.98,29.55,44.59,47.23,5.63-11.23,3.57-24.85-.89-36.59-4.47-11.74-11.17-22.59-14.9-34.59,20.8,3.67,36.8,19.68,52.83,33.43,2.49,2.13,5.15,4.3,8.36,4.95,7.71,1.56,14.12-6.05,17.22-13.27,12.47-29.05.58-66.39-26.4-82.88-12.68-7.75-27.65-11.04-42.47-12.18-16.61-1.28-35.08.74-46.59,12.78-10.19,10.66-12.43,27.03-9.37,41.45,3.05,14.42,10.65,27.41,18.14,40.11"/>
    <path class="st2" d="M960.75,301.98c66.64,26.77,45.44,19.76,74.22,33.14,3.48,1.62,7.28,3.6,8.52,7.22.8,2.32.35,4.87-.17,7.28-1.31,6.01-3.29,12.26-7.94,16.28-3.03,2.62-6.93,4.02-10.84,4.91-15.21,3.46-31.63-.31-44.7-8.83-13.07-8.52-22.91-21.48-29.11-35.8-4.04-9.33-6.63-19.62-4.98-29.65"/>
    <path class="st3" d="M560.45,541.92c47.91-29.79,98.68-2.21,125.54,41.92.71,1.06,1.4,2.26,2.25,3.1.04.05,0-.02-.01-.02-1.47-.87-3.81-.41-4.76,1.06-.05.07-.07.08-.1.13-.12.26-.1.17-.09.16l.09-.38c.52-3.44.08-7.17-.27-10.78-1.81-14.5-5.52-29.23-10.81-42.78-1.81-4.49-3.87-8.89-6.34-12.68-1.23-1.86-2.59-3.59-3.96-4.8-.68-.61-1.35-1.02-1.89-1.28-.56-.25-.93-.3-1.26-.29,0,0,1.69-9.52,1.69-9.52,22.45,10.45,43.85,23.91,61.26,41.78,13.14,13.38,23.93,29.13,31.58,46.27,27.75,62.51,16.88,132.89,24.64,198.89,5.19,49.62,23.12,93.33,64.1,123.75.61.48,1.1.86,1.5,1.1.22.15.36.21.45.27,0-.01.05.02-.03,0-1.72-.53-3.82.64-4.49,2.23-.08.15-.14.44-.15.45-.05.13-.05.34-.06.29-.16-2.3-.94-4.75-1.56-7.12-1.62-5.7-3.46-11.56-5.09-17.48-3.28-11.85-6-24.03-7.07-36.57-1.05-12.49-.49-25.5,3.48-37.94,0,0,2.69-8.42,2.69-8.42l5.83,6.65c9.74,11.25,21.06,20.78,33.72,28.04,5.04,2.87,10.64,5.83,16.17,7.67,16.61,6.14,35.17,6.14,52.34,2.07.24-.06.38-.13.58-.19.04-.01,0,0-.03.03-.16.16-.33.33-.42.54-.46.84-.19,2.1.66,2.52-2-.7-4.21-.92-6.4-1.36-10.91-2.08-36.27-5.91-32.81-21.8-.6,3.53.57,7.2,3.21,9.59,5.28,4.71,12.69,6.06,19.5,7.2,5.34.86,10.66,1.14,16.09,1.84,1.06.17,2.42.37,3.26,1.23.6.61.91,1.72.55,2.57-.64,1.64-2.59,2.1-4.04,2.63-10.67,3.27-21.63,5.02-32.86,4.8-14.96-.3-30.08-4.54-43.12-11.91-12.91-7.79-24.17-17.79-33.89-28.89,0,0,8.52-1.77,8.52-1.77-6.93,22.22-2.39,46.54,3.7,68.79,1.59,5.77,3.37,11.48,5.08,17.45.88,3.43,2.1,6.99,1.9,10.67-.11,1.63-.88,3.68-2.37,4.77-1.5,1.2-3.51,1.55-5.32,1.1-2.01-.42-4.07-1.94-5.52-3.07-20.58-15.48-37.79-35.71-48.92-59.01-10.79-22.45-16.32-47.02-19.08-71.57-6.88-58.41.77-118.4-16.07-175.25-10.92-36.44-32.84-65.51-64.6-86.46-14.4-9.97-32.26-17.85-48.19-25.26,0,0,18.81-1.56,18.81-1.56,2.2-.18,4.38.32,6.12,1.11,9.07,4.43,13.76,15.63,17.42,24.17,5.73,14.74,9.5,29.75,11.47,45.37.51,6.29,2.81,20.79-7.21,20.44-2.38-.24-4.32-1.87-5.72-3.59-10.57-15.17-21.24-30.99-36.03-42.38-23.78-19.14-56.37-22.69-83.62-8.55h0Z"/>
    <path class="st3" d="M911.99,852.3c3.31-3.33,7.77-5.21,11.91-7.28,4.24-1.98,8.57-3.75,12.94-5.42,26.31-9.92,53.73-16.57,81.55-20.8,78.07-11.78,168.22-2,206.46,77.21.03.04.05.06.07.1-.01-.05-.11-.14-.31-.29-.33-.25-.73-.41-1.14-.49-.81-.16-1.47-.07-2.07.3-.14.09.03-.03.19-.22.38-.44.88-1.22,1.33-2.05,5.33-11,7.54-23.23,9.78-35.37,5.1-26.84,4.02-57.68,2.89-84.94,6.04,16.53,15.76,39.6,18.97,56.74,7.3,33.9,5.36,70.6-9.53,102.27-.94,2.24-2.35,4.58-3.42,6.69-.67,1.24-2.63,4.86-3.32,6.21-.46.92-.89,1.93-1.04,2.48-.01.05-.04.13-.03.12,0,0,0,0,0,0v-.1c.12-1.44-.75-2.94-2.01-3.75-1.22-.81-2.82-.98-4.08-.36,1.42-1.15,2.81-2.72,4.02-4.26,14.16-18.67,23.46-40.91,30.92-63.07,28.64-86.83,18.22-176.6-5.59-263.22,0,0,18.32,33.79,18.32,33.79,15.2,28.49,23.95,59.7,28.05,91.57,3.78,31.93,2.65,65.37-10.46,95.39,0,0-8.81-4.68-8.81-4.68,27.84-45.32,35.19-101.13,28.45-153.32-12.17-94.21-69.98-176.25-140.22-237.6-67.33-58.88-144.37-105.06-225.83-142.13,38.16,15.2,75.7,32.36,111.8,52.09,29.61,16.15,58.39,34.11,85.64,54.02,24.21,17.9,46.65,38.16,67.77,59.62,53.73,55.36,96.22,124.5,109.08,201.45,9.72,57.89,2.91,120.48-28.21,171.19,0,0-8.81-4.68-8.81-4.68,6.09-13.77,9.39-28.83,10.74-44.07,2.59-30.65-1.87-61.88-10.59-91.35-4.45-14.78-10.09-29.25-17.37-42.67,0,0,9.24-3.59,9.24-3.59,22.65,93.89,21.45,199.5-27.76,285.11-4.19,6.53-8.37,13.59-14.62,18.6-.62.43-1.4.88-2.13,1.12-4.42,1.53-8.31-2.25-7.42-6.7.71-3.46,2.28-6.03,3.83-8.87,1.22-2.24,2.89-5.46,4.09-7.69,12.5-25.79,15.67-55.39,11.96-83.65-.19-1.39-1.19-7.47-1.37-8.69-.23-1.04-.84-4.08-1.07-5.17-1.97-9.18-4.61-18.22-7.91-27.01l9.67-1.95c.63,28.65-2.21,57.15-10.52,84.67-1.74,5.01-3.36,9.99-6.83,14.32-4.21,5.17-10.87,4.19-13.56-1.97-11.55-24.39-31.39-44.49-55.48-56.57-60.62-29.32-131.81-24.34-195.94-9.83-13.55,3.24-27.04,7.02-40,12.19-4.24,1.84-8.74,3.46-12.22,6.58h0Z"/>
    <path class="st3" d="M877.88,213.26c7.31,2.63,13.61,7.49,19.74,12.15,6.09,4.83,11.85,10.07,17.37,15.56,16.42,16.59,31.25,35.24,41.67,56.28,19.59,37.28,30.57,79.03,31.59,121.16,0,1.81.15,3.68-.73,5.48-.91,2.04-3.68,3.37-5.85,2.72-3.62-.98-4.36-4.61-5.8-7.4-15.66-36.42-42.05-67.4-73.9-90.95,0,0,6.93-7.08,6.93-7.08,14.68,18.61,29.18,37.67,41.22,58.19,13.75,23.2,24.63,48.19,31.54,74.29,8.49,32.37,10.61,66.43,6.32,99.6-.75,3.75-5,5.8-8.37,3.72-1.41-.84-2.24-1.96-3.04-3-1.6-2.19-2.94-4.56-4.2-6.78-11.78-20.46-20.56-42.44-32.05-62.98-3.77-6.83-7.76-13.55-12.25-19.91-4.52-6.31-9.39-12.61-16.07-16.8,21.81,10.49,45.33,52.95,58.12,74.07,5.07,8.93,9.05,18.77,15,27.08-.23-.21-.97-.62-1.4-.7-1.81-.55-4.04.37-5,1.95-.23.37-.42.81-.5,1.22,0,0-.01.1,0,.03l.04-.36c3.82-31.56,1.84-63.84-6.26-94.6-8.63-32.75-23.87-63.47-42.97-91.36-14.34-21.06-34.85-45.93-50.46-66.39,48.25,34.47,83.37,62.84,107.58,119.19.18.38.37.76.47.92.02.03.03.05,0,0-1.59-2.25-5.45-2.47-7.38-.13-.6.74-.77,1.14-.96,1.85-.06.29-.02.15-.02.05.06-1.17-.04-3.38-.06-4.56-1.59-47.26-16.46-93.62-41.69-133.53-11.28-19.77-24.69-38.5-40.78-54.69-5.44-5.32-11.02-10.76-17.82-14.31h0Z"/>
    <path class="st3" d="M395.37,153.74c10.96.28,21.83,1.95,32.55,4.26,10.25,3.74,20.34,7.96,30.1,12.93,19.67,9.94,38.06,22.59,53,38.98,0,0-7.2,6.93-7.2,6.93-3.6-3.5-7.6-6.51-11.95-8.83-9.75-5.12-22.3-7.39-32.67-3.3-.14.07-.22.14-.11.06.14-.11.31-.3.43-.44,1.86-2.3.64-6.25-2.25-6.98-.24-.04-.07-.02.04-.01,1.93.08,4.58.18,6.5.41,11.62,1.12,23.14,5.07,32.74,11.86,6.41,5.81,11.54,13.13,14.96,21.04,1.17,2.55,2.01,5.23,2.88,7.83-1.79-2.14-3.36-4.35-5.27-6.29-5.16-5.84-11.55-10.97-18.37-14.38-9.07-6.56-20.42-9.91-31.73-10.39-1.84-.12-3.97.03-5.74-.99-3.01-1.57-3.77-5.74-1.58-8.31,2.49-2.88,6.54-3.8,9.96-4.58,17.9-3.49,36.49,3.55,49.16,16.15,0,0-7.2,6.93-7.2,6.93-21.22-23.16-49.75-38.59-79.08-49.16-9.51-4.91-19.26-9.56-29.16-13.72h0Z"/>
    <path class="st3" d="M751.2,601.4c.04-.11.18-.27.35-.18.14.07.22.19.3.31,1.75,3.67,2.08,7.85,2.74,11.81,1.6,12.85,1.63,25.83,1.11,38.75-14.64,101.74-56.78,197.24-105.22,287.04-9.51,14.21-19.22,28.25-29.6,41.83,6.93-15.62,14.04-31.06,20.82-46.63,47.74-88.69,89.78-183.13,103.98-283.52,1.8-8.21,3.34-16.49,4.54-24.83.91-6.25,1.63-12.56,1.81-18.88-.07-1.91.25-4.03-.54-5.79-.08-.09-.21-.01-.3.09h0Z"/>
    <path class="st3" d="M661.74,907.25c-66.4,100.25-160.14,178.52-256.51,248.82-103.49,75.46-215.44,152.73-271.52,271.87-8.15,17.47-15.63,35.51-21.08,54-.14.58-.24,1.15-.27,1.42,0-.13.02-.15-.09-.72-.01-.06-.24-.87-.55-1.27-.48-.79-1.39-1.61-2.61-1.98-1.42-.33-1.78-.18-2.53-.03-.27.05-.69.26-.79.31-.13.06-.24.14-.34.21-.02.02.04-.04.07-.07,3.58-3.91,6.51-8.73,9.63-13.09,15.27-22.37,30.85-45.15,47.6-66.48,27.04-34.5,56.74-67.38,92.38-93.38,0,0,5.33,8.44,5.33,8.44,0,0-1.17.74-1.17.74-.39.24-.78.47-1.19.8-1.69,1.24-3.27,2.59-4.81,4.01-10.52,10.02-19.33,21.69-27.77,33.57-31.02,44.75-55.1,94.45-72.13,146.14-51.47,156.93-19.27,301.58,131.69,384.94,3.77,2,14.38,7.9,17.75,9.53,5.64-3.66-10.58,3.75-4.98,8.42,0,0-.07-.06-.07-.06,0,0-.6-.43-.6-.43,0,0-1.39-.98-1.39-.98-42.39-30.29-80.78-72.75-90.46-125.54-3.09-14.49-1.75-32.3-1.14-47.09,46.81,95.63,113.3,165.23,224.62,173.7,2.75.21,7.55.66,10.37.62,0,0,10.39.27,10.39.27,3.36.15,7.1-.19,10.4-.22,6.13-.05,14.67-.71,20.79-1.24,8.06-.48,17.91-1.85,25.93-2.79,3.94-.58,11.61-1.95,15.48-2.53,6.32-.96,14.26-2.94,20.52-4.16,6.31-1.25,14.12-3.56,20.35-5.05,6.18-1.45,14.09-4.11,20.17-5.84,9.85-2.81,20.18-6.73,29.93-9.95,4.36-1.64,8.79-3.09,12.85-5.2.09-.04.2-.15.02.02-.08.08-.03.03-.19.24-.19.3-.22.29-.41.93-.17.75-.06,1.48.38,2.2.62.8.67.71,1.01.93.39.17.25.12.41.17-31.81,3.65-65.38,10.63-98.18,12.78-21.07,1.43-42.61,2.45-63.41-2.01-6.83-1.6-13.77-3.94-19.24-8.47,2.78,2.17,5.96,3.76,9.25,4.98,39.26,13.19,114.6-3.59,156.44-11.05,4.38-.79,8.79-1.67,13.29-2.15,1.12-.12,2.37-.21,3.56.09.26.09.23.04.72.28.42.29.59.23,1.26,1.14.52.81.62,1.65.43,2.51-.21.75-.32.81-.56,1.22-.22.3-.26.32-.41.48-.49.48-.74.62-1.02.82-4.4,2.61-9.25,4.24-13.87,6.17-12.93,4.86-26.87,10.12-40.06,14.24-5.61,1.89-14.59,4.46-20.4,6.08-5.75,1.68-14.68,3.91-20.66,5.27-24.16,5.68-49.2,9.62-74.09,9.99,0,0-5.36.12-5.36.12-3.27.12-12.61-.15-16.1-.28-2.97.04-7.68-.38-10.73-.64-87.34-5.95-155.86-53.06-202.56-125.59-7.8-11.96-14.91-24.33-21.52-36.93,0,0,9.43-2.11,9.43-2.11-2.47,61.32,41.94,112.98,89.58,146.44,0,0,.79.58.79.58,0,0,.27.21.27.21,6.66,4.86-10.38,12.48-4.86,8.74-.89-.34-1.56-.77-2.22-1.08-166.95-84.03-208.98-234.12-153.1-405.8,11.46-35.18,26.41-69.17,44.21-101.6,13.5-24.29,28.34-47.98,46.24-69.39,4.73-5.64,9.96-11.22,15.64-16,0,0,.76-.58.76-.58,1.44-1.14,3.32-2.43,4.93-3.36,0,0,5.33,8.44,5.33,8.44-17.29,12.53-33.23,27.02-48.17,42.48-36.87,37.77-66.66,81.78-96.61,125.1-1.58,1.99-3.29,4.56-5.68,5.93-.25.15-.83.39-1.26.52-.91.16-1.45.39-3.02-.02-1.4-.39-2.41-1.37-3-2.28-.37-.56-.69-1.51-.72-1.74-.31-1.64-.14-2.08-.12-2.69.12-1.09.3-1.86.48-2.64.86-3.49,2.03-6.9,3.15-10.2,5.39-15.58,11.55-30.89,18.62-45.78,51.83-110.56,152.06-186.49,248.28-256.48,50.59-37.16,107.82-77.48,155.41-118.04,49.67-42.04,95.18-88.99,133.37-141.87h0Z"/>
    <path class="st3" d="M1187.34,856.87c3.33,2.76,5.46,6.7,7.62,10.38,6.29,11.31,11.09,23.37,15.67,35.45,18.5,48.44,27.07,99.93,31.17,151.48,2.45,34.48,2.18,69.45-3.7,103.61-5.92,34.3-18.12,69.16-42.05,95.25-6.03,6.58-12.69,12.49-20.08,17.69-4.13,2.86-9.02,4.77-14.01,5.45-36.76,3.97-73.32-46.93-86.66-76.61-6.21-14.34-12.19-30.58-8.92-46.62,8.6-35.07,15.23-70.67,18.04-106.67,3.12-30.2,6.37-73.14-13.15-98.29,18.08,18.63,21.48,48.13,22.94,72.98.41,8.68.41,17.36.18,26.02-.36,8.65-1.63,17.22-2.6,25.81-3.54,27.78-9.04,55.3-15.69,82.47-3.68,19.38,10.02,45.77,20.29,62,12.55,20.04,48.04,62.2,73.92,45.19,81.5-58.12,67-209.08,48.87-295.8-6.23-29.1-11.38-58.56-21.09-86.8-1.71-5.04-3.53-10.05-5.77-14.88-1.39-2.86-2.74-5.82-4.99-8.12h0Z"/>
    <path class="st3" d="M1110.86,1244.22c1.87-5.29,3.35-10.39,4.72-15.43,2.65-4.27,4.89-8.81,6.93-13.43,6.58-15.06,10.33-31.4,11.23-47.82.45-7.51.28-15.38-.38-22.86,0-1.29-.55-2.52-.39-3.8.67-3.99,1.3-7.97,1.86-11.99.23-1.36.42-2.73.69-4.12,1.44,2.39,2.79,4.83,4.03,7.33,1.18,2.51,2.38,5.05,3.36,7.66.27.65.23,1.33.23,2.01.16,2.02.39,4.03.48,6.06.39,5.21.42,10.99.31,16.22-.64,18.99-4.62,37.88-12.26,55.32-2.16,5-4.71,9.82-7.4,14.58-4.03,3.95-8.39,7.62-13.4,10.27h0Z"/>
    <path class="st3" d="M1202.73,1236.82c-.1-5.22-.12-10.19-.15-15.09,1.43-4.46,2.51-9.04,3.51-13.61,4.77-22.55,5.69-46.64-2.1-68.53-.14-4.79-.7-9.63-1.26-14.83,3.01,2.47,5.81,5.28,8.28,8.3,0,0,2.39,3.14,2.39,3.14,8.46,23.72,7.62,49.73,2.47,74.01-1.01,4.84-2.3,9.61-3.59,14.38-2.8,4.35-5.85,8.54-9.54,12.22h0Z"/>
    <path class="st3" d="M1089.43,1000c-15.29,3.62-27.88,10.22-37.83,22.53-9.58,11.51-16.4,25.03-22.58,38.6-12.15,27.48-21.32,56.21-29.97,84.97-5.23,17.2-9.76,34.66-14.74,51.95-1.47,4.72-5.34,9.58-10.85,6.67-3.54-2.22-4.57-6.37-5.7-9.93-2.1-7.69-3.09-15.19-4.07-22.96-3.5-30.23-5.41-60.31-6.9-90.65,0,0,9.77,1.27,9.77,1.27-5.08,16.63-8.95,33.81-12.78,50.84-11.68,50.21-20.75,106.36-39.78,154.23-2.42,5.72-5.34,11.69-8.9,16.93-2.36,3.22-4.49,6.4-7.91,8.81-2.54,1.83-6.7,1.59-8.6-1.46-1.16-1.75-1.29-3.98-1.25-5.8.39-7.08,1.8-13.48,2.79-20.28,8.56-50.65,8.29-105.47-17.38-151.24,0,0,9.3-3.24,9.3-3.24,8.96,54.72,15.41,111.21,4.01,166.1-.94,4.77-2.21,10.62-3.37,15.34-1.18,4.96-2.48,12.78-9.16,12.81-7.29-.41-9.38-12.01-11.1-17.3-1.84-6.88-3.25-13.69-4.58-20.52-6.38-34.02-10.79-68.31-14.9-102.63,0,0,9.95-1.04,9.95-1.04,2.76,30.28,5.04,60.48,6.21,90.88.39,11.37.69,22.98.32,34.39-.05,3.83-.39,7.76-.67,11.66-.22,2.16-.52,4.72-1.66,6.8-1.52,2.91-5.44,4.13-8.24,2.28-2.38-1.5-3.49-4.09-4.5-6.27-4.47-10.95-7.14-22.04-10.26-33.25-15.69-58.3-28.1-117.59-49.22-174.14,0,0,9.61-2.46,9.61-2.46,2.65,20.79,5.44,41.56,8.94,62.11,3.51,20.44,8.01,40.6,15.48,59.94,2.5,6.74,6.12,15,9,21.64.88,2.15,1.55,3.81,1.3,6.46-.31,2.92-3.26,5.35-6.25,4.99-1.07-.09-1.9-.38-2.77-.77-5.76-3.11-9.91-8.1-14.31-12.69-17.66-19.92-32.79-41.91-46.32-64.77-40.63-72.6-69.56-159.9-47.4-242.84-9.28,40.98-5.47,83.8,5.54,123.98,13.7,50.38,38.47,96.83,67.22,140.06,8.72,12.83,18.01,25.33,28.36,36.83,3.36,3.59,7.12,7.8,11.08,10.33-2.1-.67-4.81,1.2-5.03,3.38-.08.54,0,.66-.03.6-.24-1.16-3.22-7.65-3.72-8.88,0,0-3.08-7.34-3.08-7.34-9.27-22.12-14.95-45.68-18.92-69.23-5.59-32.24-9.86-70.29-14.15-102.9,9.68,24.49,22.35,56.4,29.35,81.32,12.99,43.55,23.41,87.97,34.99,131.78,1.95,7.27,3.94,14.54,6.14,21.64,1.38,4.22,2.62,8.47,4.58,12.12.13.24.29.4.14.24,0,0-.15-.15-.26-.23-1.49-1.16-3.9-.99-5.29.31-.13.11-.25.23-.35.37,0,0-.19.24-.19.24-.08.12-.15.23-.2.36,0,0,0-.01,0-.02,1.14-6.32,1.04-13.07,1.26-19.56.16-24.44-1.3-48.88-2.96-73.29-1.06-15.05-2.28-30.13-3.67-45.13,0,0,9.95-1.04,9.95-1.04,5.16,40.68,9.63,81.8,19.2,121.68,1.04,3.75,2.22,7.95,3.87,10.66-.97-.97-3.35-.97-4.4-.03-.14.12-.18.14-.26.23-.21.21-.16.23-.09.07.5-1.03.88-2.36,1.19-3.69,4.66-18.92,7.95-38.28,9.16-57.73,3.27-50.13-5.96-100.83-13.86-150.24,0,0,13.79,24.75,13.79,24.75,29.31,51.82,26.83,113.99,16.48,170.64-.36,2.31-.67,5.49-.64,6.83-.53-1.87-3.09-3.07-4.82-2.53-.59.17-.69.29-.71.28,1.04-.82,2.38-2.49,3.34-3.67.78-1.14,1.86-2.46,2.56-3.64,7.26-11.79,11.6-25.08,15.84-38.33,20.31-66.89,29.41-140.67,51.92-207.04,1.85,39.08,3.45,79.67,8.34,118.37.51,3.69,1.03,7.37,1.63,11,.97,5.07,1.6,10.24,3.54,14.84.19.38.19.31-.04.11-1.23-1.06-3.54-1.02-4.59.1-.15.18,0,.03.09-.14.59-1.04,1.3-2.8,1.68-4.14,14.2-45.09,28.39-90.32,49.22-132.96,6.86-13.54,14.35-26.99,24.68-38.26,10.72-12.05,23.71-18.23,39.44-21.11h0Z"/>
    <path class="st3" d="M336.91,1654.73c10.25,27.98,34.08,48.44,64.96,45.58,86.98-7.98,194.9-162.94,242.53-232.72,0,0,11.95-17.94,11.95-17.94,2.06-3,3.84-6.28,6.75-8.66,2.19-1.78,6.28-1.71,8.06,1.5,1.63,3.13.27,6.58-.52,9.65-2.72,8.81-6.22,17.32-9.69,25.73-25.6,59.72-54.15,118.09-83.05,176.17,0,0-8.68-4.95-8.68-4.95,9.18-14.54,17.06-30.21,25.25-45.45,40.44-77.8,89.24-153.07,156.53-210.49,81.75-71.62,188.76-110.06,296.66-115.62,1.98-.07,4.05-.4,6.15.3,2.99.93,4.76,4.24,3.63,7.15-.97,2.64-3.5,4.08-5.66,5.4-26.29,13.73-53.96,24.53-80.38,37.82-23.19,11.51-46.4,23.38-66.98,38.97-6.4,4.98-12.87,10.63-17.3,17.26,0,0-8.04-5.92-8.04-5.92l1.45-1.59s1.43-1.37,1.43-1.37c6.28-5.62,13.42-10.21,20.5-14.65,92.96-54.54,215.22-89.81,322.61-67.19,36.27,7.82,71,23.2,100.67,45.56,0,0,.72.53.72.53,0,0,.83.66.83.66,1.3,1.32,2.67,2.18,3.61,4.25,1.31,2.65.95,5.96-1.22,8.19-2.86,2.77-5.89,3.45-9.16,4.47-4.77,1.31-9.31,2.2-13.86,3.15-135.34,23.8-228.06,110.27-287.87,230.74,0,0-8.66-4.97-8.66-4.97,38.37-57.87,89.83-106.36,147.52-144.63,7.84-4.95,15.76-10.18,24.48-13.96.48-.18,1.1-.4,1.71-.54.16-.03.24-.06.51-.1.29-.03.32-.06.83-.08.5.04.69-.11,2.12.37.69-.25,3.83,3.09,3.26,4.58-.09,2.15-.35,1.88-.63,2.72-.14.26-.33.55-.49.77-1.39,1.79-3.28,3-4.99,4.27-35.2,22.71-53.53,61.93-71.41,98.51-25.99,55.48-55.01,110.34-94.94,157.25-39.42,47.27-87.1,87.2-138.27,121.11,0,0-4.23-8.95-4.23-8.95,39.42-11.95,77.07-28.1,109.59-53.48,5.49-4.1,10.92-8.34,16.4-12.57l8.28-6.32c2.7-1.85,6.06-4.5,9.81-3.72,1.34.19,2.72,1.16,3.58,2.24.98,1.3,1.36,2.98,1.24,4.56,0,0-.04.35-.04.35,0,0-.1.69-.1.69,0,0-.13.56-.13.56-.66,2.6-2.13,5.27-3.38,7.29-2.86,4.67-6.25,8.93-9.71,13.07-32.32,36.9-73.59,65.13-117,87.3-99.36,50.5-215.53,62.06-324.42,42.63,148.31,23.39,311.87-13.35,420.16-121.25,4.75-4.86,9.32-9.87,13.57-15.07,3.95-4.96,8.34-10.33,10.76-16.1,0,0,.05-.16.05-.16,0,0,.02-.09.02-.09l.02-.07s-.01.05,0,.08c0,.04-.01.1-.01.15,0,.13,0,.15.03.36.02.24.08.49.17.71.56,1.8,2.59,3.14,4.44,2.79.02,0,.06-.02.06-.02-.09.02-.69.31-1.23.66-.55.34-1.16.78-1.77,1.22-19.42,14.65-38.51,30.03-59.92,41.93-33.8,19.51-74.05,30.61-111.08,42.33,34.58-22.75,70.84-46.86,101.78-74.17,57.7-49.16,103.86-110.68,137.24-178.62,21.29-40.75,37.06-85.21,67.88-120.33,7.23-8.08,15.52-15.35,24.52-21.47,0,0,2.25-1.56,2.25-1.56.73-.52,1.45-1.05,2.06-1.54.36-.27.63-.53.8-.69.03-.03-.07.08-.13.17-.09.12-.21.31-.3.47-.24.73-.42.35-.53,2.38-.56,1.37,2.49,4.58,3.06,4.32,1.32.43,1.39.29,1.77.33.39-.02.3-.02.48-.04,0,0,.16-.03.16-.03.08-.02.04,0,.02,0-1.29.45-2.48,1.07-3.75,1.71-63.11,35.99-123.69,92.6-163.82,153.14,0,0-8.66-4.97-8.66-4.97,16.66-33.33,36.3-65.32,59.59-94.59,46.25-58.8,109.15-105.39,180.91-127.84,17.75-5.74,36.08-9.96,54.29-13.63,4.5-.94,9.04-1.85,13.19-2.99,1.02-.29,2.01-.6,2.88-.92.84-.3,1.66-.74,1.73-.82.04-.02-.02,0-.03.03-.19.21-.35.43-.45.69-.23.47-.33,1.17-.25,1.65.05.37.15.61.2.71.09.19.05.05-.17-.16-.18-.2-.48-.47-.8-.74,0,0-.53-.42-.53-.42,0,0-.68-.49-.68-.49-28.53-21.49-61.9-36.26-96.79-43.78-99.09-20.39-202.61,7.77-291.39,52.47-12.09,6.33-24.02,13.07-35.13,20.9-3.39,2.45-6.83,4.95-9.64,8.04,0,0-8.04-5.92-8.04-5.92,2.71-4.11,5.88-7.61,9.19-10.82,23.01-21.14,51.53-35.01,79.07-48.93,23.54-11.61,47.7-21.94,71.34-33.12,3.52-1.8,7.28-3.41,10.38-5.68-.59.71-.91,1.44-.95,2.68-.1,1.54,1.08,3.43,2.45,4.04.18.09.45.2.63.24.22.05.12.02.03.02-1.26-.03-7.62.47-9.12.56-212.85,14.54-345.55,136.48-438.47,320.37-8.34,15.54-16.19,31.13-25.67,46.17,0,0-8.68-4.94-8.68-4.94,31.77-64.33,64.08-128.71,90.44-195.46.97-2.83,2.09-5.62,2.63-8.5.01-.07,0-.07.02.12,0,.08.01.17.03.25.01.07.06.34.11.49.9,3.07,4.73,4,6.7,2.54.03-.02.06-.04.08-.07,0,0,.01-.01,0,0-.04.04-.12.11-.21.2-.85,1.02-2.03,2.47-2.82,3.71-29.04,42.32-59.63,84.06-92.71,123.31-39.19,45.79-110.98,124.6-173.94,126.41-30.23.79-53.05-20.06-62.37-47.84h0Z"/>
    <path class="st3" d="M384.55,1394.86c.03,27.63,1.95,55.29,6.7,82.5,2.03,16.61,5.56,33.42,12.92,48.48,6.93,14.36,18.68,25.93,35.6,25.02,7.69-.35,15.85-2.97,23.07-6.31,1.74-.83,5.3-2.68,7.06-3.49,2.68-1.07,5.34-2.4,8.68-.87,4.02,2.1,3.66,6.9,1.49,9.99-4.4,6.43-10.12,11.01-16,15.8-17.05,13.13-36.52,23.76-57.86,28.04-7.2,1.38-14.69,1.93-22.19,1.15,0,0,4.77-7.61,4.77-7.61,7.14,11.54,16.15,21.62,29.23,25.04,11.81,3.06,24.43.18,35.62-4.25,13.76-5.56,26.54-13.85,38.6-22.61,5.9-4.51,13.77-3.89,14.98,4.61.55,7.8-2.89,15.4-5.87,22.09-8.82,18.07-21.57,34.8-39.03,45.39-4.47,2.61-9.26,5.06-14.55,6.07l-1.5-9.72c6.55.02,12.99-.11,19.23-.99,12.76-1.72,24.67-7.63,36.18-13.47,5.91-2.97,11.74-6.15,17.62-9.22-10.8,7.88-21.45,15.76-33.17,22.37-11.68,6.95-25.96,9.93-39.32,11.19,0,0-45.75,5.1-45.75,5.1,3.97-1.43,47.87-15.81,50.3-17.08,6.2-2.46,11.65-6.38,16.67-10.85,10.09-9.11,18.37-20.75,24.28-33.07,2.35-5.32,5.12-11.28,4.96-16.78.31.89,1.61,1.63,2.52,1.53.15-.04-.09.03-.32.13-1.11.56-2.6,1.67-3.66,2.42-22.12,15.77-52.1,33.84-80.33,26.81-20.26-5.37-30.49-21.4-40.64-38.11,0,0,10.22,1.07,10.22,1.07,12.95,1.33,26.13-1.87,38.21-6.79,15.34-6.39,29.91-15.54,42.22-26.79,2.11-2,4.63-4.49,6.09-6.74.25-.37.3-.65.19-.23-.55,2.25,1.58,4.84,3.81,4.84.43-.01.26-.03.09.03-2.22.69-6.4,3.05-8.63,4.08-1.68.73-3.34,1.47-5.04,2.17-51.06,20.25-72.09-23.54-79.23-66.62-2.21-10.4-2.58-21.02-2.68-31.61-.17-20.98,1.26-42.02,4.44-62.7h0Z"/>
    <path class="st3" d="M582.19,1171.49c13.58,3.05,26.68,7.91,39.4,13.57,24.03,14.08,46.47,31.08,65.29,51.74,34.84,37.77,53.07,86.05,48.74,137.54-.16,1.91-.59,5.96-.77,7.85-.6,3.45-.61,7.01-1.52,10.4-3.86,13.55-8.89,26.58-15.3,38.83,2.63-13.57,4.69-27.06,5.44-40.49.32-3.33,1.1-6.58,1.45-9.91.16-1.8.58-5.76.73-7.46,4.09-48.82-13.14-94.21-46.17-130.03-18.1-19.78-39.69-36.37-62.95-49.73-10.96-7.94-22.34-15.48-34.34-22.32h0Z"/>
    <path class="st3" d="M725.37,1314.94c12.69,5.76,20.22,24.99,25.24,37.26,2.03,4.59,2.81,9.58,4.17,14.35.49,1.75.91,3.38,1.49,4.78-.13-.23-.31-.46-.53-.69-1.86-1.94-5.4-1.75-7.04.46-.24.3-.47.72-.58,1.05,0,.01.03-.15.05-.22.68-4.96,1.2-10.46,1.46-15.45.67-11.41.65-22.89.44-34.32-.3-13.11-.91-26.31-1.87-39.36l9.83-1.62c4.67,18.17,9.59,36.37,15.05,54.27,1.37,4.47,2.79,8.92,4.28,13.31,2.06,5.67,3.78,11.45,6.85,16.39.06.08.13.15.04.06-.02-.01-.14-.13-.27-.2-1.47-1.02-3.76-.74-5.02.48-.66.65-.67.93-.71.95-.04.12.08-.25.13-.62.68-4.9.12-11.69.2-16.8.04-16.7,1.31-33.37,3.19-49.93.86-7.14,1.3-14.15,3.26-21.11,3.36-13.87,7.09-27.65,11.64-41.16-1.33,16.48-2.36,32.98-3.16,49.48-.96,6.65-1.9,14.15-2.57,20.89-1.39,13.89-2.34,27.91-2.36,41.84,0,0,.07,6.94.07,6.94-.04,4.77.52,9.55-1.2,14.37-.96,2.66-4.16,4.82-7.32,3.79-3.77-1.23-5.46-5.32-7-8.47-2.09-4.63-3.67-9.13-5.24-13.67-7.53-22.53-13.62-45.42-19.57-68.36,0,0,9.83-1.62,9.83-1.62,1.78,25.84,2.83,51.7,1.31,77.57-.31,4.18-.79,9.15-1.34,13.33-.11.77-.28,1.64-.53,2.41-1.13,3.77-5.71,5.28-8.69,2.63-.87-.77-1.44-1.75-1.88-2.78-1.48-3.72-2.13-7.14-3.22-10.8-1.01-3.14-1.8-6.3-2.31-9.55-2.53-12.27-6.04-31.83-16.13-39.88h0Z"/>
    <path class="st3" d="M1039.04,1038c3.33,10.45,6.31,21.04,9.3,31.57,4.44,32.32,10.6,64.12,15.49,96.49,3.96,29.57,9.5,63.59-5.81,91.03-1.57,2.48-2.82,5.18-4.85,7.33-4.18,4.17-8.67,7.84-13.56,10.72-4.76,2.99-9.84,5.25-15.05,7.27,6.15-5.43,11.81-10.97,16.56-17.52,1.45-2.05,2.92-4.28,4.08-6.51,19.1-25.57,12.56-61.12,8.74-90.86-4.92-32.05-10.92-64.3-15.6-96.51-.18-11,.02-22.03.7-33.02h0Z"/>
    <path class="st3" d="M951.05,1296.64c4.1-11.47,6.09-23.63,7.47-35.65.29-3,.46-6,1.18-8.91.67-2.92.96-5.91,1.38-8.87.77-5.85,1.19-12.04,1.55-17.93,0,0,9.75,1.77,9.75,1.77-4.62,13.93-10.79,27.25-19.19,39.36-2.39,3.26-5.04,7.08-8.67,9.35-2.97,1.88-7.17.31-8.07-3.23-.18-.58-.27-1.44-.27-1.95.08-3.65,1.06-6.8,1.8-9.99,2.75-10.64,6.63-23.45,9.18-34.08,1.08-4.49,2.08-9.01,2.67-13.34l9.7,2.23c-5.77,17.41-12.22,34.68-19.45,51.54-2.6,6.1-5.22,12.06-7.52,18-.31.69-.76,1.42-1.29,2-2.03,2.32-6.02,2.35-8.03-.05-.79-.86-1.3-2.02-1.62-3.11-1.9-8.24-1.52-16.33-1.96-24.61-.27-3.08.33-6.16.64-9.23,1.37-10.72,2.79-21.52,6.02-31.87.5-1.46,1.04-2.95,1.88-4.25-.44,1.47-.53,2.99-.63,4.49-.34,12.08.89,24.23,2.08,36.24.39,4.47-.02,8.99.31,13.46.24,4.33.33,9,1.29,13.06-.13-.33-.37-.63-.6-.9-1.78-2.04-5.41-1.91-6.99.29,0,0-.13.2-.13.2l-.03.05s-.04.09-.04.08c2.35-6.14,4.96-11.94,7.41-17.75,7.13-16.66,13.45-33.57,19.16-50.78,0,0,9.7,2.23,9.7,2.23-1.41,9.76-3.96,18.85-6.49,28.21-2.07,8.08-5.94,19.65-7.09,27.71-.05-.8-.5-1.67-1.05-2.29-1.28-1.54-3.82-1.97-5.47-1.1.49-.42.91-.81,1.42-1.37,10.05-11.98,16.76-26.91,21.8-41.68,0,0,12.36-37.34,12.36-37.34-.48,7.34-2.79,41.93-3.23,48.48-.4,4.37-.98,9.67-1.62,14.01-.55,3.09-.69,6.26-1.54,9.29-4.13,13.43-9.47,26.87-17.79,38.24h0Z"/>
    <path class="st3" d="M454.88,383.04c4.13,3.28,7.54,7.31,10.53,11.64,1.55,4.85,2.87,9.81,3.61,14.94,1.56,10.4.8,21.51-3.86,31.21-6.02,12.8-18.41,21.42-31.35,26.09-1.02.35-2.62.86-3.62,1.26-.58.27-1.16.58-1.82.59-5.19,0-10.49-.5-15.55-1.57,1.84-1.22,4.59-2.88,6.51-4.01,2.1-1.39,4.15-2.71,6.16-4,2.12-.82,4.35-1.37,6.43-2.25,20.62-8.03,30.61-23.46,27.2-45.85-.62-4.47-1.83-8.9-3.29-13.14-.14-4.94-.47-9.87-.96-14.9h0Z"/>
  </g>
  <circle class="st5" cx="791.34" cy="756.14" r="38.89"/>
</svg>