<?xml version="1.0" encoding="UTF-8"?>
<svg id="Layer_1" xmlns="http://www.w3.org/2000/svg" version="1.1" viewBox="0 0 642.64 619.24">
  <!-- Generator: Adobe Illustrator 30.6.0, SVG Export Plug-In . SVG Version: 2.1.4 Build 109)  -->
  <defs>
    <style>
      .st0 {
        fill: #231f20;
      }
    </style>
  </defs>
  <path class="st0" d="M139.24,488.94s-21.02,27.2-29.46,38.1c-5.33,6.89-22.61,22.02-22.61,22.02,0,0,81.33,81.33,188.43,26.31-11.84.43-18.15-.33-30.01-2.14,30.86-31.08,33.86-57.41,77.43-105.88-50.65,22.94-62.12,80.36-94.79,97.69-22.38,11.88-59.85,7.2-116.57-30.93,6.23-6.19,24.54-34.46,27.58-45.18Z"/>
  <path class="st0" d="M78.24,557.57s35.09-48.87,50.82-64.75c-45.9,39.34,17.62-56.15,110.66-95.49,0,0-27.05,5.74-47.54,8.2,15.57-5.33,27.46-12.3,38.52-13.52-56.97-15.98-106.56,56.56-106.56,56.56,0,0,34.43-25.82,52.87-31.15,0,0-108.2,57.38-98.77,140.16Z"/>
  <path class="st0" d="M106.29,444.06s-21.76,23.78-28.28,19.67c-2.16-1.36,5.82-6.56,10.66-20.08,14.06-39.31,88.08-53.79,100.41-56.97,5.36-1.38-28.39,7.49-49.59,34.43-34.84,44.26-37.3,59.02-70.08,79.51C5.29,373.15,137.86,290.16,242.99,242.82c-19.02,7.09-89.2,49.85-132.16,100.39-39.12,46.01-49.4,88.55,5.93,62.32,0,0-34.57,40.1-52.82,44.93,2.35,4.97,5.06,51.8,52.19-13.61,6.09-8.45-8.02-.15-13.51,5.13-9.47,9.11-11.62,15.53,3.68,2.09Z"/>
  <path class="st0" d="M86.44,409.62s56.97-38.11,129.1-29.1c0,0-31.83-18.03-62.08-23.17,0,0,48.1-56.12,86.22-111.03,0,0-123.74,64.83-153.24,163.3Z"/>
  <path class="st0" d="M185.52,356.44l38.12,24.81s-29.19-20.87-22.99-23.9c.71-.35,7.11-.91,6.96,4.24,0,0,5.75-.76,1.36-12.71,0,0,6.96.15,5.14,9.53,0,0,34.49-15.73-19.82-31.61,0,0-20.27,22.39-11.5,27.53,0,0-1.21-14.52,11.5-12.4,0,0-9.98,2.57-8.77,14.52Z"/>
  <path class="st0" d="M196.11,323.16s64.29,18.3,16.94,39.03c6.35,7.11,23.29,23.9,23.29,23.9,0,0-.15-7.87-3.18-16.64,9.08-7.87,13.01-36.91-14.07-49.61,10.89-21.03,23.6-15.13,34.49-44.17,12.86,12.4,2.12,22.99,2.12,22.99,0,0,27.83-21.48-6.96-60.51-3.18,35.09-11.95,38.12-52.64,85.01Z"/>
  <path class="st0" d="M255.11,240.87s54.76,77.15,25.72,110.12c-9.68,8.02-37.21-18.76-33.13-33.43,8.47-24.96,43.72,38.42,5.14,8.77,38.42,54.3,30.1-35.4,16.94-50.07-.45,16.49-6.5,27.23-6.5,27.23,0,0-24.37-8.49-27.23,16.94-3.33,29.65,81.97,86.87,63.08-12.4-7.11-37.36-28.59-62.32-28.59-62.32,0,0-1.97-24.35-19.06-37.21,3.48,19.82,4.84,21.33,3.63,32.37Z"/>
  <path class="st0" d="M301.39,271.13l18.45-14.22s-18.15-1.51-22.39.91-22.08-32.37-22.08-47.8,6.81-26.77,1.82-50.52c0,0-12.25,39.93-19.06,46.89,0,0,23.9,53.55,43.26,64.74Z"/>
  <path class="st0" d="M288.38,236.03s-11.5-31.61-1.82-63.83c0,0,16.71-13.24,35.57-34.96,1.23,13.11-38.89,78.07,8,35.56s144.61,18.15,52.04,131.3c0,0,22.82-87.1,7.87-111.94-29.04-48.25-60.51,33.58-94.09,11.5,0,0-6.81,11.19-7.56,32.37Z"/>
  <path class="st0" d="M344.35,204.57s14.52,28.59-25.41,45.08c0,0,3.14-10.8-2.42-16.64-6.05-6.35-22.4,11.25-13.61,13.16,16.03,3.48,3.93-4.08,3.93-4.08,0,0,6.12-4.1,7.11-1.82,1.84,4.27-1.49,16.81-17.24,9.23-5.7-2.75,2.74-18.75,17.23-36.02,0,0,8.48,31.79,30.41-8.9Z"/>
  <path class="st0" d="M346.47,302.29s-.15-11.8,6.35-9.83c2.94.89,5.61,5.94-5.6,17.85-19.21,20.42-17.71-37.07,4.69-36.45,33.28.91,4.43,75.55-25.87,42.96-31.92-34.34,39.78-50.98,44.02-71.4,0,0,9.53,11.04,4.24,29.35,0,0,31.92-33.13-11.5-85.01,0,0,16.54,44.66-49.16,78.05-18.45,9.38-8.5,83.8,7.41,75.33,18.76-9.98,68.07-26.77,52.04-56.27-19.43-35.74-61.5-.03-42.05,27.53,13.77,19.51,39.78-21.03,28.14-27.53s-28.74,8.47-12.71,15.43Z"/>
  <path class="st0" d="M245.73,396.37s-9.53-19.06,1.21-44.47c0,0,18.15,22.39,29.65,24.5,0,0-17.4,4.39-23.9,4.24,0,0-4.24,5.45-6.96,15.73Z"/>
  <path class="st0" d="M295.34,62.99s11.33-36.29,55.67,31.46c29.5,45.08,38.61,37.25,39.93,33.28,3.03-9.08-17.09-12.1-5.45-3.63,0,0-8.36,7.35-8.77-6.66-.3-10.29,21.63.61,20.27,7.56s-15.58,24.35-56.57-14.82l9.98,2.12s-29.35-71.25-55.06-49.31Z"/>
  <path class="st0" d="M344.35,107.31s-25.87-55.67-45.38-43.72c-8.34,5.11,37.82,69.58,37.82,69.58,0,0,6.2-9.98,20.27-4.69,0,0-23.6-18.3-26.32-27.08,0,0,6.81,3.63,13.61,5.9Z"/>
  <path class="st0" d="M338,67.83s34.79,36.45,36,51.43c0,0-.91-12.55,10.89-7.87,11.05,4.39,25.84,16.87,2.72,29.65,0,0,21.77,1.1,22.45-13.63.69-14.96-17.76-14.05-72.07-59.58Z"/>
  <path class="st0" d="M289.9,57.84s-.61-17.7,8.17-20.57c42.81,23.14,151.57,46.28,129.48,90.15-10.74,21.33-30.86,17.24-30.86,17.24,0,0,45.08-14.11,3.93-38.12-58.84-34.34-106.49-85.92-110.73-48.71Z"/>
  <path class="st0" d="M316.52,175.22s6.05-38.42,37.51-44.77c-.2.37,4.22,8.62,26.55,13.67,14.57,3.29,28.13,9.96,39.4,22.94,0,0,31.61.61,31.77,31.16,0,0-3.63-6.53-10.29-7.71,0,0,4.4,21.15-18.25,53.15-.96.06,15.58-27.62,3.97-53.58-15.47-34.58-62.17-65.75-110.66-14.85Z"/>
  <path class="st0" d="M410.54,152.28s9.66,4.83,18.47-.64c0,0,.54,6.44-9.23,8.59,0,0,44.45,8.91,49.6,40.58,0,0,18.36-26.84-24.05-44.24,0,0,29.85-12.99-3.87-49.6,0,0,15.57,33.71-30.92,45.31Z"/>
  <path class="st0" d="M453.59,286.27c-1.99-28.63,7.62-90.62,7.62-90.62-19.33,9.13-60.55,109.3-60.55,109.3,16.53-21.04,31.14-30.06,31.14-30.06,20.4,79.99-55.19,138.72-60.13,111.23-5.59-31.09,6.66-4.29,6.66-4.29,12.99-61.2-49.39-3.87-7.09,20.83,42.81,24.99,84.5-85.46,82.35-116.39Z"/>
  <path class="st0" d="M407.35,279.09s-13.37,28.84-40.51,46.09c-65.81,41.8-149.84,111.47-147.27,197.86,0,0-6.65-81.67,162.06-181.99,0,0,12,7.07,4.29,40.73,0,0,48.23-42.01,42.87-99.46,0,0-13.08,23.58-33.87,28.72l12.43-31.94Z"/>
  <path class="st0" d="M551.96,61.62c-.08-.07-.13-.11-.13-.11.04.04.09.07.13.11Z"/>
  <path class="st0" d="M498.67,198.71s6.43,62.16,45.02,26.58c12.14-11.2,36.87-59.38,9-90.89,18.22,58.58-49.67,117.74-33.01,42.01,13.94-63.35,30.61-67.45,42.62-67.04,24.18.82,20.08,87.3,7.79,31.97-2.25,11.33.82,40.89-5.4,56.51,0,0,71.52-68.31-12.73-136.23,1.59,1.37,16.35,16.43-33.79,66.77-50.8,51.02-47.59,108.47-66.67,204.5-7.37,37.09-96.46,150.7-101.18,48.02,0,0-78.03,11.36-121.76,145.34-4.2,12.87-1.11,18.37-43.73,31.48,0,0,44.65.75,54.88-19.05,16.93-32.8,63.38-77.81,112.33-99.04,0,0-46.17,51.08-63.1,88.17,0,0,31.83-31.9,35.67-32.65,108.95-21.31,153.6-99.4,169-178.46,8.14-41.81-4.16-84.13,5.06-118Z"/>
  <path class="st0" d="M599.55,250.6c-22.95,50-39.99,80.83-39.99,80.83,26.58-65.17,26.58-154.77,26.58-154.77-58.52,120.04-83.6,67.74-83.6,67.74,16.29,142.55-68.17,208.36-68.17,208.36,17.58-1.29,29.58-14.15,29.58-14.15-2.71,6.58-5.64,12.75-8.72,18.53,54.96-21.07,127.1-112.69,144.31-206.54Z"/>
  <path class="st0" d="M557.75,370.28c-34.43,56.15-56.51,75.65-111.48,96.72-27.08,50.92-67.21,62.7-67.21,62.7,90.89,13.29,160.34-93.48,160.34-93.48-2.1,23.15-27.51,51.02-27.51,51.02,93.03-54.92,81.92-182.54,81.92-182.54l-36.07,65.57Z"/>
  <path class="st0" d="M360.62,538.26c65.81-54.45,68.38-75.03,68.38-75.03-98.82,53.16-111.37,41.64-111.37,41.64-15.86,29.37-61.19,64.26-61.19,64.26,96.25,10.29,144.91-5.14,144.91-5.14-11.79,9.86-21.01,11.58-21.01,11.58,156.96-30.12,195.48-125.2,195.48-125.2-85.66,90.57-215.21,87.9-215.21,87.9Z"/>
  <path class="st0" d="M316.46,352.19s-25.54,39.31-83.17,61.31c-51.66,19.72-98.39,100.75-71.17,114.04,36.44,17.79,17.58-100.54,92.82-114.47,0,0-47.24,19.26-49.3,79.74-3.43,100.32-84.89,40.73-84.89,40.73,0,0,9.22.43,14.58-21.65,1.99-8.2,4.72-17.79,15.01-32.58l-15.22,2.79s22.89-41.4,99.89-78.89c73.1-35.58,81.46-51.02,81.46-51.02Z"/>
</svg>